<?xml version="1.0" encoding="UTF-8"?>
<!DOCTYPE svg PUBLIC "-//W3C//DTD SVG 1.1//EN" "http://www.w3.org/Graphics/SVG/1.1/DTD/svg11.dtd">
<!-- Creator: CorelDRAW -->
<svg xmlns="http://www.w3.org/2000/svg" xml:space="preserve" width="1.5748in" height="1.9685in" style="shape-rendering:geometricPrecision; text-rendering:geometricPrecision; image-rendering:optimizeQuality; fill-rule:evenodd; clip-rule:evenodd"
viewBox="0 0 1.5748 1.9685"
 xmlns:xlink="http://www.w3.org/1999/xlink">
 <defs>
  <style type="text/css">
   <![CDATA[
    .fil7 {fill:#C7948B}
    .fil8 {fill:#FEFEFE}
    .fil9 {fill:#034E9B}
    .fil10 {fill:#107FF2}
    .fil5 {fill:#231F20;fill-rule:nonzero}
    .fil6 {fill:#603913;fill-rule:nonzero}
    .fil1 {fill:#C69A7D;fill-rule:nonzero}
    .fil3 {fill:#DEBB90;fill-rule:nonzero}
    .fil0 {fill:#FDD3A1;fill-rule:nonzero}
    .fil2 {fill:#FEE2B8;fill-rule:nonzero}
    .fil4 {fill:white;fill-rule:nonzero}
    .fil11 {fill:#FEFEFE}
   ]]>
  </style>
 </defs>
 <g id="Layer_x0020_1">
  <metadata id="CorelCorpID_0Corel-Layer"/>
  <g id="_460941416">
   <g>
    <path id="_460945160" class="fil0" d="M0.10074 1.20418c0,0.0577598 0.0468189,0.104579 0.104579,0.104579 0.0577559,0 0.104579,-0.0468189 0.104579,-0.104579 0,-0.0577598 -0.0468228,-0.104579 -0.104579,-0.104579 -0.0577598,0 -0.104579,0.0468189 -0.104579,0.104579z"/>
    <path id="_460945112" class="fil1" d="M0.215382 1.19376c0.0126299,0.00587008 0.0247362,0.0140984 0.036315,0.0227953 -0.00366142,0.00303543 -0.00682677,0.00664173 -0.0117598,0.00827559 -0.00730315,0.0024252 -0.0151457,0.00345276 -0.0227795,0.00195669 -0.0065315,-0.0012874 -0.0148228,-0.00369291 -0.0177087,-0.0104724 -0.00550394,-0.0129291 0.00473228,-0.0210394 0.0159331,-0.0225551zm-0.0698543 0.000555118c0.0200079,-0.0111969 0.0391142,-0.0112205 0.0572598,-0.00544882 -0.00605512,0.00285039 -0.0109843,0.00896457 -0.0119961,0.0157165 -0.00162205,0.0108543 0.0016811,0.0208701 0.0117795,0.026437 0.0104764,0.00576772 0.0233661,0.0073937 0.0350118,0.00438976 0.0070315,-0.00181496 0.0177323,-0.00596063 0.0215276,-0.0131929 0.00124409,0.00096063 0.00248819,0.00191732 0.00371654,0.00287795 0.00144488,0.00112992 0.00324016,-0.000228346 0.00249213,-0.0019252 -0.0144606,-0.0329882 -0.0989016,-0.0769646 -0.12265,-0.0317165 -0.000964567,0.00184252 0.000984252,0.00390945 0.00285827,0.0028622z"/>
    <path id="_460944944" class="fil2" d="M0.191083 1.11231c-0.0306732,0.00682283 -0.0592795,0.0216969 -0.0789252,0.0445157 0.0172874,-0.033937 0.0524685,-0.0572283 0.0931654,-0.0572283 0.0396378,0 0.074126,0.0220669 0.0918583,0.0545787 -0.0254764,-0.0285118 -0.0638819,-0.0465551 -0.106098,-0.0418661z"/>
    <path id="_460945184" class="fil3" d="M0.3015 1.24016c0.00179134,-0.00297638 0.00335039,-0.00603543 0.0047874,-0.00912598 -0.0118701,0.0447165 -0.0525157,0.0777165 -0.100969,0.0777165 -0.0432165,0 -0.0802953,-0.0262165 -0.0962362,-0.0636024 0.054752,0.0518425 0.136327,0.0474488 0.192417,-0.00498819z"/>
   </g>
   <path id="_460945016" class="fil0" d="M1.222 1.66544c0.0145669,-0.107465 0.0200512,-0.216965 0.0300394,-0.324925 0.0119567,-0.129429 0.121051,-0.585484 0.0455079,-0.698177 -0.239433,-0.357142 -0.787575,-0.28298 -1.012,-0.0232165 -0.0979449,0.113362 -0.018874,0.40676 -0.00510236,0.503079 0.0258898,0.181075 0.0517874,0.362157 0.0776732,0.543228 0.0166378,0.0873386 0.246185,0.21272 0.457083,0.21272 0.132374,-0.0150472 0.392386,-0.106362 0.406803,-0.212709z"/>
   <path id="_460945376" class="fil3" d="M1.1697 0.746902c0.030622,-0.00509843 0.0836457,0.0838858 0.151217,0.113524 0.00694094,-0.095811 0.00327953,-0.178323 -0.0233701,-0.218083 -0.239433,-0.357142 -0.787575,-0.28298 -1.012,-0.0232165 -0.0625315,0.0723701 -0.0528976,0.218063 -0.034189,0.339055 0.0505591,-0.0754055 0.112701,-0.146157 0.162882,-0.222898 0.238256,0.139469 0.518626,0.0814134 0.755461,0.0116181z"/>
   <path id="_460944704" class="fil3" d="M0.814906 1.83652c-0.133657,0 -0.430858,-0.0629213 -0.462795,-0.213075 0.00200787,0.0140079 0.00400394,0.0279961 0.00600394,0.0419921 0.0166378,0.0873346 0.246185,0.21272 0.457083,0.21272 0.132374,-0.0150472 0.392386,-0.106362 0.406803,-0.212709 0.0012126,-0.0089252 0.00226772,-0.0178819 0.0033622,-0.0268189 -0.0142874,0.105744 -0.276799,0.19789 -0.410457,0.19789z"/>
   <path id="_460944680" class="fil4" d="M0.90165 1.21936c-0.00362205,0.0109252 -0.00496457,0.0223465 -0.00357874,0.0338976 0.00661417,0.0554094 0.0725984,0.0930709 0.147354,0.0841654 0.0747598,-0.00894094 0.130008,-0.0610906 0.12339,-0.116484 -0.000350394,-0.00303937 -0.000917323,-0.00600394 -0.00163386,-0.00890945 -0.0122402,-0.0504724 -0.0750354,-0.0836969 -0.14572,-0.0752402 -0.0591457,0.00705512 -0.106055,0.041185 -0.119811,0.0825709z"/>
   <path id="_460944824" class="fil5" d="M1.08835 1.24004c0,0.026252 -0.0277126,0.0475354 -0.0618976,0.0475354 -0.0341772,0 -0.0618976,-0.0212835 -0.0618976,-0.0475354 0,-0.026252 0.0277205,-0.0475354 0.0618976,-0.0475354 0.034185,0 0.0618976,0.0212835 0.0618976,0.0475354z"/>
   <path id="_460943888" class="fil4" d="M1.01638 1.24532c0,0.00662992 -0.00747244,0.0120039 -0.0166772,0.0120039 -0.0092126,0 -0.0166772,-0.00537402 -0.0166772,-0.0120039 0,-0.00662992 0.00746457,-0.0120039 0.0166772,-0.0120039 0.00920472,0 0.0166772,0.00537402 0.0166772,0.0120039z"/>
   <path id="_460944392" class="fil6" d="M0.892445 0.933047l-0.00461811 0.0670118c0.112008,0.0128622 0.246043,0.023878 0.334173,0.102827l0 -0.0201969c-0.0816535,-0.0987126 -0.329555,-0.149642 -0.329555,-0.149642z"/>
   <path id="_460944344" class="fil6" d="M0.88476 0.964453l7.87402e-005 -0.00104724c0.000137795,-0.00719685 0.000255906,-0.0143425 -0.00011811,-0.0213976l-0.000964567 -0.0208976c1.1811e-005,-0.00276378 -0.00219291,-0.00505906 -0.00497638,-0.00512992 -0.0028189,-6.69291e-005 -0.00515354,0.00215354 -0.00522835,0.00497244l-7.87402e-006 0.00015748c-0.000185039,0.00711417 -0.000173228,0.0141535 -0.000200787,0.0211181l-8.26772e-005 0.0103622 -0.000338583 0.0102441 -0.000889764 0.0100709 -0.00142913 0.00984646c-7.48031e-005,0.000307087 -0.000161417,0.000606299 -0.000228346,0.000913386 -0.00170079,-0.00725984 -0.00333858,-0.0145039 -0.00490551,-0.0217441l-0.00338583 -0.0203701 -0.00157874 -0.0204409 -3.14961e-005 -0.000433071c-0.000145669,-0.0019252 -0.00170472,-0.00347638 -0.0036811,-0.0035748 -0.0021378,-0.000106299 -0.00395276,0.00154331 -0.00406299,0.00368504l-0.00165354 0.0342087 -0.00147244 0.0168504c-0.000350394,0.00259843 -0.00088189,0.00514567 -0.0013189,0.00772047l-0.000141732 -0.000334646 -0.00146063 -0.00434252c-0.000228346,-0.000720472 -0.000248031,-0.00140157 -0.000393701,-0.00209843l-0.000358268 -0.0021063 -7.48031e-005 -0.000409449c-0.000133858,-0.00076378 -0.000677165,-0.00143307 -0.0014685,-0.00167323 -0.00112598,-0.000358268 -0.00232677,0.000275591 -0.00268504,0.00140157 -0.000846457,0.00271654 -0.00163386,0.00548819 -0.00233071,0.00833071l-0.000413386 0.00223228 -0.00204331 -0.00561024 -0.00170866 -0.0060315 -0.00132283 -0.0061378c-0.000724409,-0.0041378 -0.00128346,-0.00830709 -0.00169291,-0.0125079 -0.000346457,-0.00419685 -0.000586614,-0.00841732 -0.000704724,-0.0126457 -7.87402e-006,-0.000307087 -0.000255906,-0.000559055 -0.000570866,-0.000570866 -0.000322835,0 -0.000582677,0.000251969 -0.000586614,0.000570866 -8.66142e-005,0.00425197 -5.11811e-005,0.00850787 0.000106299,0.0127638 0.000204724,0.00425984 0.000582677,0.00851181 0.0011378,0.0127598l0.00105118 0.00634252 0.00146063 0.0062874 0.00193701 0.00618898 0.00248031 0.00602756c0.00023622,0.000570866 0.000771654,0.000992126 0.00142126,0.00105906 0.000956693,0.000102362 0.00180315,-0.000586614 0.00190157,-0.00153937l3.54331e-005 -0.000311024 0.000413386 -0.00396063 0.000917323 -0.00395669c0,-3.93701e-006 0,-3.93701e-006 3.93701e-006,-7.87402e-006l0.000444882 0.00156299 0.00314961 0.0090315 5.11811e-005 0.000145669c0.000283465,0.000811024 0.000964567,0.00146063 0.00187008,0.00166929 0.00138976,0.000311024 0.00277559,-0.000562992 0.00308268,-0.00195276l0.0019252 -0.00851969c0.000610236,-0.00283465 0.00132677,-0.0056811 0.00180709,-0.00854331l0.00100787 -0.00821654c0.00232677,0.0135906 0.00483465,0.0270906 0.00750394,0.040437l5.51181e-005 0.000291339c0.000338583,0.00162598 0.00142126,0.00308661 0.00305118,0.00383465 0.00273228,0.00126378 0.00595669,7.08661e-005 0.00721654,-0.00265748 0.00158661,-0.00344094 0.00326772,-0.00688189 0.00473228,-0.0103898 0.0010315,-0.00359055 0.00214567,-0.00718898 0.00309055,-0.0108031l0.000401575 -0.00235039c0.000901575,0.00394094 0.0018189,0.00788976 0.00283465,0.011811 6.69291e-005,0.000267717 0.000307087,0.000452756 0.000590551,0.000440945 0.000322835,-1.5748e-005 0.00057874,-0.000283465 0.000555118,-0.000610236 -0.000251969,-0.0061811 -0.000732283,-0.0123346 -0.00114567,-0.0184961 -0.000145669,-0.00385433 -0.000397638,-0.00769291 -0.00065748,-0.0115197z"/>
   <path id="_460944080" class="fil4" d="M0.674846 1.21558c0.00362205,0.0109213 0.00498031,0.0223425 0.00359449,0.0338937 -0.00662992,0.0554094 -0.0726142,0.0930748 -0.147354,0.0841654 -0.0747756,-0.00893701 -0.130024,-0.0610906 -0.123406,-0.116484 0.000350394,-0.00303543 0.000917323,-0.006 0.00164961,-0.00890551 0.0122244,-0.0504724 0.0750197,-0.0836969 0.145705,-0.0752441 0.0591457,0.00705512 0.106055,0.041185 0.119811,0.0825748z"/>
   <g>
    <path id="_460943720" class="fil5" d="M0.488154 1.23625c0,0.026252 0.0277087,0.0475354 0.0618898,0.0475354 0.0341811,0 0.0619016,-0.0212835 0.0619016,-0.0475354 0,-0.026252 -0.0277205,-0.0475354 -0.0619016,-0.0475354 -0.0341811,0 -0.0618898,0.0212835 -0.0618898,0.0475354z"/>
    <path id="_460943624" class="fil4" d="M0.50611 1.24154c0,0.00662992 0.0074685,0.0120039 0.0166732,0.0120039 0.00921654,0 0.0166811,-0.00537402 0.0166811,-0.0120039 0,-0.00662992 -0.00746457,-0.012 -0.0166811,-0.012 -0.00920472,0 -0.0166732,0.00537008 -0.0166732,0.012z"/>
   </g>
   <path id="_460943168" class="fil6" d="M0.365075 1.08269l0 0.0201969c0.0881299,-0.0789488 0.222173,-0.0899646 0.334173,-0.102827l-0.00461811 -0.0670118c0,0 -0.247906,0.0509291 -0.329555,0.149642z"/>
   <path id="_460943096" class="fil6" d="M0.756181 0.937063c-0.000322835,0 -0.00057874,0.000251969 -0.000586614,0.000574803 -0.00011811,0.00422441 -0.000354331,0.00844488 -0.000708661,0.0126378 -0.000405512,0.00420472 -0.000964567,0.00837402 -0.00169291,0.0125118l-0.00132677 0.00614173 -0.00169685 0.00602756 -0.00205512 0.00560236 -0.000401575 -0.00222441c-0.000700787,-0.00284252 -0.00148425,-0.00561811 -0.00233465,-0.00833071 -0.00023622,-0.000740157 -0.000866142,-0.00133465 -0.0016811,-0.00147244 -0.00116929,-0.000204724 -0.00227165,0.00057874 -0.00247638,0.00174803l-7.08661e-005 0.000405512 -0.000362205 0.0021063c-0.000145669,0.00069685 -0.000169291,0.00137795 -0.000389764,0.00209843l-0.0014685 0.00434252 -0.000133858 0.000334646c-0.000437008,-0.0025748 -0.000972441,-0.00512205 -0.00131496,-0.00772047l-0.00148031 -0.0168543 -0.00165354 -0.0342047c-9.44882e-005,-0.0019252 -0.0016063,-0.00352756 -0.00357874,-0.0036811 -0.0021378,-0.000161417 -0.00400394,0.00143307 -0.00416535,0.00357087l-3.14961e-005 0.000433071 -0.00157874 0.0204409 -0.00338583 0.0203661c-0.00156299,0.00724016 -0.00320472,0.0145 -0.00490157,0.0217598 -7.87402e-005,-0.000311024 -0.000161417,-0.00061811 -0.000240157,-0.000925197l-0.0014252 -0.00984646 -0.000885827 -0.0100709 -0.000334646 -0.0102402 -8.26772e-005 -0.0103701c-3.14961e-005,-0.00696063 -1.9685e-005,-0.0140039 -0.000200787,-0.0211142l3.93701e-006 -0.000145669c0.000133858,-0.00281102 -0.00203937,-0.00519685 -0.00485827,-0.00533071 -0.0028189,-0.000129921 -0.00520079,0.00204724 -0.00533071,0.0048622l-3.14961e-005 0.000614173 -0.000968504 0.0208976c-0.000370079,0.00705512 -0.000251969,0.0142008 -0.000110236,0.0213976l7.08661e-005 0.0010315c-0.000255906,0.00383465 -0.000503937,0.00767323 -0.00065748,0.0115315 -0.000409449,0.00616535 -0.000893701,0.0123189 -0.00114567,0.0185 -7.87402e-006,0.000271654 0.000169291,0.000523622 0.000437008,0.000594488 0.000314961,7.48031e-005 0.000633858,-0.000110236 0.000708661,-0.00042126 0.00101969,-0.00392913 0.00193701,-0.00787008 0.00284646,-0.0118189l0.000401575 0.00235827c0.000937008,0.00361024 0.00204724,0.00720866 0.00308268,0.0108031 0.0014685,0.0035 0.00314567,0.00694488 0.00473622,0.0103858 0.000704724,0.00151181 0.00211024,0.00270472 0.00386614,0.00305512 0.00294882,0.000590551 0.00581496,-0.0013189 0.00640157,-0.00426772l4.72441e-005 -0.000259843c0.00266929,-0.0133386 0.00518504,-0.0268386 0.00750394,-0.0404331l0.00101575 0.0082126c0.000472441,0.0028622 0.00119291,0.00571654 0.00180709,0.00855118l0.00191732 0.00851181c0.000188976,0.000838583 0.000799213,0.00157087 0.00166929,0.00187402 0.00135039,0.000468504 0.00282283,-0.000240157 0.00329134,-0.00159055l5.51181e-005 -0.000141732 0.00314173 -0.00903543 0.000448819 -0.00156299c3.93701e-006,7.87402e-006 3.93701e-006,7.87402e-006 3.93701e-006,1.1811e-005l0.000909449 0.00395669 0.000417323 0.00396063 3.54331e-005 0.000314961c6.29921e-005,0.000610236 0.000452756,0.00116142 0.00105512,0.00142126 0.000893701,0.000358268 0.00190551,-6.29921e-005 0.00226378,-0.000944882l0.00248819 -0.00602756 0.00193307 -0.00618898 0.00146457 -0.0062874 0.00105512 -0.00634252c0.000547244,-0.00424803 0.000917323,-0.0085 0.00112598,-0.0127598 0.00015748,-0.00425591 0.00019685,-0.00851181 0.000114173,-0.0127598 -7.87402e-006,-0.000311024 -0.000259843,-0.000566929 -0.000570866,-0.000574803z"/>
   <g>
    <path id="_460943216" class="fil0" d="M1.47406 1.20418c0,0.0577598 -0.0468228,0.104579 -0.104579,0.104579 -0.057752,0 -0.104575,-0.0468189 -0.104575,-0.104579 0,-0.0577598 0.0468228,-0.104579 0.104575,-0.104579 0.0577559,0 0.104579,0.0468189 0.104579,0.104579z"/>
    <path id="_460943528" class="fil3" d="M1.2733 1.24016c-0.0017874,-0.00297638 -0.00334646,-0.00603543 -0.0047874,-0.00912598 0.0118701,0.0447165 0.0525157,0.0777165 0.100969,0.0777165 0.0432165,0 0.0802913,-0.0262165 0.0962402,-0.0636024 -0.048437,0.0491654 -0.134953,0.0507165 -0.192421,-0.00498819z"/>
    <path id="_460943504" class="fil1" d="M1.37535 1.21631c-0.00288583,0.00677953 -0.0111693,0.00918898 -0.0177087,0.0104724 -0.00763386,0.00149606 -0.0154724,0.000468504 -0.0227756,-0.00195669 -0.00493701,-0.00163386 -0.00809449,-0.00524016 -0.0117638,-0.00827559 0.0115827,-0.00869685 0.0236929,-0.0169252 0.036315,-0.0227953 0.0112047,0.00151575 0.021437,0.00962598 0.0159331,0.0225551zm0.0567835 -0.0248622c-0.0237559,-0.045248 -0.108193,-0.00127165 -0.122657,0.0317165 -0.00073622,0.00169685 0.00105512,0.00305906 0.00249606,0.0019252 0.00123228,-0.000956693 0.00248031,-0.00191732 0.00372047,-0.00287795 0.00379921,0.00723622 0.0144961,0.011378 0.0215276,0.0131929 0.0116457,0.00300394 0.0245315,0.00138189 0.0350118,-0.00438976 0.0100945,-0.00556693 0.0134055,-0.0155866 0.0117717,-0.026437 -0.001,-0.00675591 -0.00593701,-0.0128661 -0.0119843,-0.0157165 0.0181417,-0.00577165 0.037248,-0.00574803 0.0572559,0.00544488 0.00187008,0.00105118 0.0038189,-0.00101575 0.00285827,-0.00285827z"/>
    <path id="_460943336" class="fil2" d="M1.38371 1.11231c0.0306811,0.00682283 0.0592835,0.0216969 0.0789291,0.0445157 -0.0172795,-0.033937 -0.0524606,-0.0572283 -0.0931614,-0.0572283 -0.0396378,0 -0.074126,0.0220669 -0.0918622,0.0545787 0.0254843,-0.0285118 0.0638898,-0.0465551 0.106094,-0.0418661z"/>
   </g>
   <g>
    <path id="_460942856" class="fil7" d="M1.01019 1.58957c-0.113031,0.0093937 -0.282953,0.00809055 -0.401331,0.00253543 0.10222,0.137693 0.313445,0.145272 0.401331,-0.00253543z"/>
    <path id="_460942760" class="fil8" d="M0.966902 1.59257c-0.0955984,0.00522441 -0.216539,0.00470079 -0.314748,0.00125984 0.0113661,0.0379094 0.0717913,0.0405197 0.156882,0.0416732 0.0854331,0.00116535 0.146185,-0.00344488 0.157866,-0.0429331z"/>
    <path id="_460942568" class="fil7" d="M0.893047 1.70544c-0.0431417,0.0254488 -0.11422,0.0229055 -0.167024,0.00080315 0.0425354,0.0433937 0.130433,0.0457795 0.167024,-0.00080315z"/>
   </g>
   <g>
    <path id="_460942328" class="fil9" d="M1.35823 0.783661c0.00252362,0.0571614 -0.00335827,0.115083 -0.0149173,0.170547 -0.00771654,0.0368031 -0.0217835,0.120102 -0.0539921,0.138276 -0.0186654,-0.0354606 -0.00677559,-0.083626 -0.010626,-0.12265 -0.00393701,-0.0400276 -0.00853937,-0.0868189 -0.0264291,-0.123157 -0.0370906,-0.0754882 -0.106024,-0.128854 -0.080315,-0.222713 0.0188504,-0.0687323 0.0840236,-0.0569685 0.125697,-0.0165512 0.0434724,0.0420787 0.0578307,0.11426 0.0605827,0.176248z"/>
    <path id="_460942664" class="fil10" d="M1.34001 0.678291c-0.00933465,-0.0272283 -0.0229173,-0.0520354 -0.0423661,-0.0708701 -0.0114291,-0.0111063 -0.0246063,-0.0200276 -0.0381575,-0.0257362 -0.0398858,0.0291732 -0.0694449,0.0851535 -0.0807795,0.140102 0.0179252,0.0426732 0.0514134,0.079815 0.0735551,0.124894 0.017874,0.0363268 0.0224921,0.0831339 0.0264291,0.123161 0.00377953,0.038252 -0.0074685,0.0852205 0.00958661,0.120417 0.0339528,-0.0615236 0.0228031,-0.18461 0.00900394,-0.23863 -0.00974409,-0.0382992 -0.0256811,-0.0676024 -0.0118425,-0.107642 0.00856693,-0.0248622 0.0308465,-0.052315 0.0545709,-0.0656969z"/>
    <path id="_460942976" class="fil10" d="M0.442311 0.406685c-0.0247323,0.0486969 -0.0308268,0.113606 -0.0103661,0.165984 0.0216929,0.0555512 0.0736024,0.0670118 0.118524,0.089063 0.0491063,0.0240512 0.0914055,0.0491693 0.13413,0.0861614 0.0442756,0.0382638 0.0886614,0.0797756 0.143197,0.0965472 0.0816063,0.0251378 0.171114,0.0207598 0.252689,-0.000228346 0.20652,-0.0532165 0.334693,-0.413276 0.197146,-0.62052 0.0186417,0.115291 -0.0443583,0.138409 -0.114252,0.192504 0.0695276,-0.0957441 0.0083189,-0.275488 -0.0948071,-0.325846 0.137256,0.321047 -0.193492,0.267354 -0.354445,0.248787 -0.0899449,-0.0104173 -0.218067,-0.0382362 -0.271815,0.0675472z"/>
    <path id="_460942352" class="fil10" d="M0.331602 0.476189c0.027374,-0.00404724 0.0564921,0.0026378 0.0808307,0.0157323 0.0298189,0.016063 0.0613031,0.0308346 0.0873071,0.0546063 0.0170197,0.0156024 0.0563504,0.0658583 0.050752,0.0939213 -0.00432283,0.0214724 -0.0218661,0.0116142 -0.0381496,0.0112835 -0.029937,-0.000610236 -0.0643819,0.00187795 -0.090252,0.0173189 -0.0895354,0.0533583 -0.109941,0.193055 -0.122083,0.295677 -0.00274803,0.0230276 -0.00084252,0.0543661 -0.0149449,0.0721181 -0.0400748,-0.030685 -0.0421732,-0.134929 -0.0518425,-0.18461 -0.0201063,-0.103465 -0.0283071,-0.248346 0.0336063,-0.336091 0.0169606,-0.024 0.0401378,-0.0362874 0.0647756,-0.0399567z"/>
    <path id="_460942208" class="fil9" d="M1.27764 0.223697c0.00237795,0.014752 0.00339764,0.0280276 0.00325197,0.0400472 0.0102874,0.0408543 0.0210551,0.0803937 0.0168346,0.126996 -0.00529134,0.0583583 -0.0183819,0.115791 -0.0413031,0.16939 -0.0294724,0.0689213 -0.0714606,0.142563 -0.135406,0.175362 -0.0731181,0.0374843 -0.136217,0.0565866 -0.216654,0.0374961 -0.0755276,-0.0179134 -0.138189,-0.0602559 -0.209634,-0.0941693 -0.0695591,-0.0330591 -0.138138,-0.0957205 -0.216787,-0.0865591 -0.01,0.00119291 -0.020378,0.00370866 -0.0309173,0.00726378 0.0257638,0.0333189 0.0669016,0.044252 0.103445,0.0622047 0.0491063,0.0240472 0.0914055,0.0491693 0.13413,0.0861614 0.0442756,0.0382598 0.0886614,0.0797717 0.143197,0.0965472 0.0816063,0.0251378 0.171114,0.0207598 0.252689,-0.000228346 0.206516,-0.0532283 0.369217,-0.43702 0.197154,-0.620512z"/>
    <path id="_460942016" class="fil9" d="M0.477941 0.592248c-0.0624882,0.00732677 -0.140354,0.0635591 -0.166988,0.131063 -0.0373228,0.0946339 -0.0194134,0.196299 -0.0172992,0.295638 0.00476772,-0.0169685 0.00438189,-0.0377087 0.00633858,-0.0542087 0.0121378,-0.102622 0.0325512,-0.242319 0.122079,-0.295681 0.0258858,-0.015437 0.0603268,-0.0179449 0.090252,-0.0173189 0.0162913,0.000346457 0.0338268,0.0101929 0.0381535,-0.0112835 0.00230709,-0.0115315 -0.00305906,-0.0268504 -0.0112835,-0.0419094 -0.0198346,-0.00592126 -0.040189,-0.00876772 -0.061252,-0.00629921z"/>
    <path id="_460941944" class="fil11" d="M0.377358 0.56237c0.0382835,-0.00416929 0.0525236,-0.0408504 0.0125512,-0.0593465 -0.0436811,-0.020185 -0.0899252,0.0109094 -0.11122,0.0537008 -0.0209134,0.0420787 -0.0118701,0.0732047 -0.0157402,0.115878 0.00652756,-0.0717992 0.0584882,-0.104079 0.114409,-0.110232z"/>
    <path id="_460942088" class="fil11" d="M0.977622 0.586949c-0.0800157,0.0449528 -0.139933,0.0196417 -0.218343,-0.0160787 -0.0338189,-0.0153898 -0.0669055,-0.0268622 -0.101118,-0.0430512 -0.0655197,-0.0310079 -0.129898,-0.0649213 -0.199764,-0.0258898 -0.00349606,-0.0454882 0.0185079,-0.0897953 0.0487441,-0.117413 0.0245354,-0.0223898 0.0588583,-0.0349488 0.0899921,-0.0341772 0.0517244,0.00122835 0.110823,0.0478543 0.158689,0.0175906 -0.0265669,0.0277953 -0.0534567,0.0425276 -0.0894488,0.0396575 -0.0281929,-0.00233465 -0.0743504,-0.0190197 -0.0911299,0.0176654 0.0625866,-0.0393504 0.170551,0.0610157 0.226177,0.085563 0.0840118,0.0370906 0.178146,0.0693386 0.252701,-0.00926772 -0.0260276,0.0363819 -0.038622,0.064126 -0.0765,0.0854016z"/>
   </g>
   <g>
    <g>
     <path id="_460941776" class="fil9" d="M0.350008 1.18046l-0.0715079 -0.0315236c-0.00620866,-0.00274016 -0.0102835,-0.00937008 -0.0102835,-0.0167441l0 -0.0238543c0,-0.00995669 0.00732677,-0.0180276 0.0163583,-0.0180276l0.0817913 0 -0.0163583 0.0901496z"/>
    </g>
    <g>
     <path id="_460941680" class="fil9" d="M1.23334 1.18046l0.0715079 -0.0315236c0.00620866,-0.00274016 0.0102835,-0.00937008 0.0102835,-0.0167441l0 -0.0238543c0,-0.00995669 -0.00732677,-0.0180276 -0.0163583,-0.0180276l-0.0817913 0 0.0163583 0.0901496z"/>
    </g>
    <path id="_460942112" class="fil10" d="M1.19273 1.05513c-0.099874,-0.014437 -0.201165,-0.014437 -0.301039,0 -0.0287756,0.00416142 -0.0505827,0.0287559 -0.0555984,0.058752 -0.0129331,-0.00925591 -0.0281496,-0.0147874 -0.0444213,-0.0147874 -0.0162717,0 -0.0314882,0.00552756 -0.0444213,0.0147874 -0.00501575,-0.03 -0.0268228,-0.0545945 -0.0555945,-0.058752 -0.099874,-0.014437 -0.201165,-0.014437 -0.301039,0 -0.0354134,0.00512598 -0.0607677,0.0411142 -0.0565,0.0802244 0.00229921,0.0210748 0.00461417,0.0415 0.00691732,0.0619606 0.00458268,0.0405512 0.00916535,0.0812244 0.0137677,0.127181 0.00463386,0.0460276 0.0395394,0.0808937 0.0812638,0.0811181l0.210209 3.93701e-006c3.14961e-005,0 6.29921e-005,0 9.44882e-005,0 0.0416142,-0.00026378 0.0764882,-0.0351496 0.081122,-0.0811378 0.00459843,-0.0461339 0.00921654,-0.0869488 0.0137992,-0.127657 0.000728346,-0.00641732 0.00144882,-0.0129882 0.00216929,-0.0194134 0.000200787,-0.000590551 0.000547244,-0.00107874 0.000688976,-0.00170079 0.00557874,-0.023874 0.0251142,-0.0405512 0.0475276,-0.0405512 0.022378,0 0.0419173,0.0166417 0.0475079,0.0404646 0.000133858,0.000574803 0.000496063,0.000992126 0.000677165,0.00154331 0.000732283,0.00650787 0.00146063,0.0131654 0.00219685,0.0196575 0.00458268,0.0407047 0.00920079,0.0815236 0.0138031,0.127673 0.00462992,0.0460276 0.0395354,0.0808898 0.0812756,0.0811181l0.210213 0c3.14961e-005,0 6.29921e-005,0 9.44882e-005,0 0.0416142,-0.00026378 0.0764685,-0.0351457 0.0811024,-0.0811378 0.00460236,-0.045937 0.00918504,-0.0866142 0.0137677,-0.127161 0.00230315,-0.0204606 0.00461811,-0.0408898 0.00692126,-0.0619646 0.00426378,-0.0391024 -0.0210866,-0.0750945 -0.0565039,-0.0802205zm-0.497768 0.265386c-0.00279528,0.0277874 -0.0237362,0.0488465 -0.0487362,0.0490394l-0.210083 0c-0.0250315,-0.000122047 -0.0460236,-0.0212165 -0.0488189,-0.0490197 -0.00461417,-0.0461339 -0.00923228,-0.0869646 -0.013815,-0.127657 -0.0023189,-0.0204252 -0.00461811,-0.040815 -0.00690157,-0.0618228 -0.00214173,-0.0195984 0.0105433,-0.0376102 0.0282559,-0.0401811 0.0485472,-0.00700787 0.0973976,-0.0105118 0.14628,-0.0105118 0.0488661,0 0.097752,0.00350394 0.146264,0.0105118 0.0177323,0.00257087 0.0304173,0.0205827 0.0282598,0.0401811 -0.00226772,0.0208307 -0.00455512,0.041063 -0.00683858,0.0613268 -0.00461417,0.040874 -0.00923228,0.0818425 -0.0138661,0.128134zm0.52178 -0.189457c-0.00228346,0.0210039 -0.00458268,0.0413937 -0.00690157,0.0618189 -0.00458268,0.0406929 -0.00920079,0.0815276 -0.013815,0.127642 -0.00279528,0.0277835 -0.0237402,0.0488425 -0.0487244,0.0490394l-0.210083 0c-0.0250472,-0.000125984 -0.0460394,-0.0212205 -0.0488346,-0.0490236 -0.00463386,-0.0463071 -0.00924803,-0.0872795 -0.0138661,-0.128146 -0.00228346,-0.0202677 -0.00456693,-0.0405 -0.00683465,-0.0613465 -0.00215748,-0.0195827 0.0105236,-0.0375945 0.0282559,-0.0401654 0.0485315,-0.00700787 0.0973976,-0.0105118 0.146264,-0.0105118 0.0488661,0 0.097748,0.00350394 0.14628,0.0105118 0.0177165,0.00256693 0.0304016,0.0205827 0.0282598,0.0401811z"/>
   </g>
   <path id="_460941056" class="fil7" d="M0.753331 1.48344c0.0890236,0.0185433 0.125571,-0.0358386 0.126173,-0.0814449 0.0227047,0.0839764 -0.038122,0.129394 -0.126173,0.0814449z"/>
  </g>
 </g>
</svg>
